<svg version="1" xmlns="http://www.w3.org/2000/svg" width="341.333" height="341.333" viewBox="0 0 256.000000 256.000000"><path d="M124 19.7c-1.7.7-6 5.4-6 6.6 0 .4-1.6 3.3-3.5 6.3s-3.5 5.6-3.5 5.9c0 .2-2.9 5.4-6.5 11.6-3.6 6.1-6.5 11.3-6.5 11.4 0 .2-1.9 3.6-4.3 7.7-2.4 4-5.7 9.8-7.4 12.8-1.7 3-9 15.8-16.2 28.4-7.2 12.6-13.1 23-13.1 23.2 0 .2-1.6 2.8-3.5 5.8s-3.5 5.8-3.5 6.1c0 .3-1 2.2-2.3 4.3-1.3 2-3.7 6.2-5.4 9.2-1.7 3-7.5 13.1-12.8 22.5-5.4 9.3-10.9 19-12.3 21.5-1.3 2.5-2.8 4.9-3.2 5.5-2.9 4.1-9 16.8-9 19 0 1.6 1.2 3.8 2.9 5.6l2.9 2.9h233.4l2.9-2.9c2.9-3 4-8.5 2-10.7-.5-.5-2.2-3.2-3.7-5.9-2.9-5.3-30.7-54-41.9-73.5-2.1-3.6-5.1-8.9-6.7-11.8-3.5-6.5-30.4-54.1-31.8-56.2-.5-.8-7.5-13-15.5-27-8.1-14-15.7-26.3-16.8-27.2-2.2-1.7-5.8-2.2-8.7-1.1z"/></svg>